<?xml version="1.0" encoding="utf-8"?>
<svg version="1.1" xmlns="http://www.w3.org/2000/svg" xmlns:xlink="http://www.w3.org/1999/xlink" x="0px" y="0px"
	 viewBox="0 0 16 16" style="enable-background:new 0 0 16 16;" xml:space="preserve">
<title>logo</title>
<path class="st0" d="M11.3,5.2c-1.2,0-2.3,0.6-3,1.6V5.2c0.9-0.1,1.5-0.4,1.9-0.9c0.4-0.5,0.6-1.2,0.6-1.8c0-0.7-0.2-1.3-0.6-1.8
	C9.8,0.2,9.4,0,8.9,0C8.6,0,8.4,0.1,8.2,0.2C8,0.4,7.9,0.6,7.8,0.8C7.8,1,7.7,1.3,7.7,1.8v3.1c-1-0.2-1.5-1.1-1.5-2.5
	c0-1.3,0.4-2,1.2-2.2V0C6.8,0,6.3,0.3,5.9,0.7c-0.4,0.4-0.6,1-0.6,1.7c0,0.8,0.2,1.4,0.7,1.9c0.4,0.5,1,0.8,1.8,0.8v1.6
	c-1.1-1.7-3.4-2.1-5-1c-1,0.7-1.6,1.8-1.6,3c0,2,1.1,2.6,3.6,4.5C7.3,15.1,8,16,8,16s0.9-1,3.3-2.7s3.6-2.5,3.6-4.5
	C14.9,6.8,13.3,5.2,11.3,5.2L11.3,5.2z M8.3,1.7c0-0.3,0-0.6,0-0.7c0-0.1,0.1-0.2,0.1-0.3c0.1-0.1,0.2-0.1,0.3-0.1
	c0.3,0,0.6,0.2,0.8,0.6S10,2.1,10,2.7c0,1.3-0.6,2-1.7,2.2L8.3,1.7z"/>
</svg>